<?xml version="1.0" encoding="iso-8859-1"?>
<!-- Generator: Adobe Illustrator 19.0.0, SVG Export Plug-In . SVG Version: 6.00 Build 0)  -->
<svg version="1.1" id="Layer_1" xmlns="http://www.w3.org/2000/svg" xmlns:xlink="http://www.w3.org/1999/xlink" x="0px" y="0px"
	 viewBox="0 0 480 480" style="enable-background:new 0 0 480 480;" xml:space="preserve">
<g>
	<g>
		<path d="M457.432,151.254c13.232,0,22.568-10.768,22.568-24V102.31c0-9.392-4.808-17.968-13.352-21.848L306.992,7.734
			c-6.304-2.856-13.352-2.864-19.688,0l-160.608,72.72C118.152,84.342,112,92.918,112,102.31v24.944c0,13.232,12.192,24,25.432,24
			H152v72c0,4.416,3.576,8,8,8s8-3.584,8-8v-72h32v96c0,4.416,3.576,8,8,8s8-3.584,8-8v-96h48v176c-4.424,0-8,3.584-8,8
			c0,4.416,3.576,8,8,8h8h48h64h48c4.416,0,8,3.592,8,8v24H264c-4.424,0-8,3.584-8,8c0,4.416,3.576,8,8,8h184h8c4.416,0,8,3.592,8,8
			v8H248c-4.424,0-8,3.584-8,8c0,4.416,3.576,8,8,8h224c4.424,0,8-3.584,8-8v-16c0-13.232-10.768-24-24-24v-24
			c0-10.416-6.712-19.216-16-22.528V151.254H457.432z M312,327.254h-32v-176h32V327.254z M376,327.254h-48v-176h48V327.254z
			 M424,327.254h-32v-176h32V327.254z M432,135.254h-48h-64h-48h-64h-48h-22.568c-4.416,0-9.432-3.592-9.432-8V102.31
			c0-3.136,2.552-5.992,5.4-7.288l160.344-72.728c1.056-0.48,2.368-0.72,3.496-0.72s2.344,0.24,3.392,0.712l159.344,72.736
			c2.848,1.296,4.024,4.16,4.024,7.288v24.944c0,4.408-2.16,8-6.568,8H432z"/>
	</g>
</g>
<g>
	<g>
		<path d="M344,79.254h-8.808c-3.72-18.232-19.88-32-39.192-32s-35.472,13.768-39.192,32H248c-4.424,0-8,3.584-8,8s3.576,8,8,8
			h8.808c3.72,18.232,19.872,32,39.192,32c19.32,0,35.472-13.768,39.192-32H344c4.424,0,8-3.584,8-8S348.424,79.254,344,79.254z
			 M296,111.254c-13.232,0-24-10.768-24-24s10.768-24,24-24s24,10.768,24,24S309.232,111.254,296,111.254z"/>
	</g>
</g>
<g>
	<g>
		<circle cx="296" cy="87.254" r="8"/>
	</g>
</g>
<g>
	<g>
		<path d="M34.712,225.43c-1.8-3.76-6.584-5.352-10.664-3.56c-4.08,1.792-5.728,6.704-3.664,10.968
			c1.92,4.344,7.384,5.56,11.088,3.328C35.408,233.814,36.368,229.27,34.712,225.43z"/>
	</g>
</g>
<g>
	<g>
		<path d="M23.816,197.254c-1.032-4.04-5.424-6.592-9.792-5.704c-4.36,0.888-6.96,5.328-5.776,9.912
			c1.064,4.624,5.736,7.096,10.024,5.632C22.408,205.686,24.728,201.334,23.816,197.254z"/>
	</g>
</g>
<g>
	<g>
		<path d="M19.088,167.414c-0.208-4.168-4.008-7.584-8.456-7.624c-4.456-0.04-7.88,3.752-7.648,8.48
			c0.264,4.712,3.968,8.136,8.52,7.616C15.8,175.39,19.32,171.582,19.088,167.414z"/>
	</g>
</g>
<g>
	<g>
		<path d="M13.664,129.542c-4.352-0.928-8.48,2.112-9.192,6.792c-0.736,4.68,2.328,8.776,6.88,9.16c4.32,0.36,8.416-2.68,9.072-6.8
			C21.056,134.566,18.016,130.47,13.664,129.542z"/>
	</g>
</g>
<g>
	<g>
		<path d="M23.368,99.11c-4.152-1.864-8.944,0.184-10.496,4.664c-1.624,4.448,0.52,9.112,4.776,10.408
			c4.256,1.296,8.888-0.816,10.32-4.736C29.312,105.494,27.344,100.902,23.368,99.11z"/>
	</g>
</g>
<g>
	<g>
		<path d="M39.272,71.43c-3.488-2.576-9.016-1.856-11.336,2.272c-2.464,4.04-1.296,9.088,2.592,11.256
			c3.888,2.168,8.808,1.04,10.968-2.528C43.512,78.766,42.952,74.134,39.272,71.43z"/>
	</g>
</g>
<g>
	<g>
		<path d="M60.576,47.662c-2.936-3.32-8.216-3.48-11.648-0.232c-3.192,3.496-3.056,8.72,0.296,11.648
			c3.344,2.936,8.344,2.816,11.136-0.28C63.4,55.942,63.544,51.006,60.576,47.662z"/>
	</g>
</g>
<g>
	<g>
		<path d="M86.36,28.83c-2.2-3.88-7.256-5.032-11.296-2.568C71,28.686,70.272,34.166,72.88,37.646
			c2.72,3.656,7.392,4.24,10.992,2.12C87.44,37.606,88.552,32.702,86.36,28.83z"/>
	</g>
</g>
<g>
	<g>
		<path d="M114.032,16.326c-1.368-4.232-6.088-6.36-10.528-4.728c-4.512,1.48-6.296,6.728-4.44,10.672
			c1.928,4.12,6.376,5.6,10.36,4.328C113.344,25.174,115.4,20.566,114.032,16.326z"/>
	</g>
</g>
<g>
	<g>
		<path d="M145.208,9.43c-0.448-4.432-4.6-7.456-9.28-6.736c-4.696,0.608-7.632,4.96-6.616,9.384c0.976,4.248,5.088,7.04,9.232,6.52
			C142.672,17.974,145.648,13.854,145.208,9.43z"/>
	</g>
</g>
<g>
	<g>
		<path d="M169.488,0.758c-4.728-0.232-8.504,3.168-8.432,7.744c0.072,4.328,3.504,8.16,7.672,8.368
			c4.168,0.208,7.944-3.224,8.432-7.648C177.648,4.798,174.208,0.998,169.488,0.758z"/>
	</g>
</g>
<g>
	<g>
		<path d="M202.72,5.838c-4.592-1.176-9.008,1.424-9.872,5.792c-0.864,4.368,1.712,8.768,5.752,9.8
			c4.056,0.984,8.448-1.52,9.824-5.64C209.864,11.462,207.32,6.974,202.72,5.838z"/>
	</g>
</g>
<g>
	<g>
		<path d="M120,239.254c-66.168,0-120,53.832-120,120s53.832,120,120,120s120-53.832,120-120S186.168,239.254,120,239.254z
			 M215.976,319.254h-42.984c-1.808-11.672-4.4-22.408-7.656-32h29.544C203.744,296.47,210.968,307.278,215.976,319.254z
			 M175.168,271.254H158.76c-1.92-3.864-3.96-7.448-6.136-10.68C160.624,263.222,168.16,266.846,175.168,271.254z M160,359.254
			c0,8.384-0.424,16.376-1.152,24H81.16c-0.736-7.624-1.16-15.616-1.16-24c0-8.384,0.424-16.376,1.152-24h77.688
			C159.576,342.878,160,350.87,160,359.254z M120,255.254c6.92,0,14.112,5.76,20.472,16H99.52
			C105.888,261.014,113.08,255.254,120,255.254z M148.232,287.254c3.512,9.088,6.448,19.84,8.512,32h-73.48
			c2.064-12.16,5-22.912,8.512-32H148.232z M87.376,260.574c-2.176,3.232-4.216,6.816-6.136,10.68H64.832
			C71.84,266.846,79.376,263.222,87.376,260.574z M45.128,287.254h29.544c-3.256,9.592-5.848,20.328-7.656,32H24.024
			C29.032,307.278,36.256,296.47,45.128,287.254z M16,359.254c0-8.272,1.072-16.28,2.904-24H65.04c-0.672,7.72-1.04,15.728-1.04,24
			c0,8.272,0.368,16.28,1.04,24H18.904C17.072,375.534,16,367.526,16,359.254z M24.024,399.254h42.984
			c1.808,11.672,4.4,22.408,7.656,32H45.128C36.256,422.038,29.032,411.23,24.024,399.254z M64.832,447.254H81.24
			c1.92,3.864,3.96,7.448,6.136,10.68C79.376,455.286,71.84,451.662,64.832,447.254z M120,463.254c-6.92,0-14.112-5.76-20.472-16
			h40.952C134.112,457.494,126.92,463.254,120,463.254z M91.768,431.254c-3.512-9.088-6.448-19.84-8.512-32h73.48
			c-2.064,12.16-5,22.912-8.512,32H91.768z M152.624,457.934c2.176-3.232,4.216-6.816,6.136-10.68h16.408
			C168.16,451.662,160.624,455.286,152.624,457.934z M194.872,431.254h-29.544c3.256-9.592,5.848-20.328,7.656-32h42.984
			C210.968,411.23,203.744,422.038,194.872,431.254z M174.96,383.254c0.672-7.72,1.04-15.728,1.04-24c0-8.272-0.368-16.28-1.04-24
			h46.136c1.832,7.72,2.904,15.728,2.904,24c0,8.272-1.072,16.28-2.904,24H174.96z"/>
	</g>
</g>
<g>
</g>
<g>
</g>
<g>
</g>
<g>
</g>
<g>
</g>
<g>
</g>
<g>
</g>
<g>
</g>
<g>
</g>
<g>
</g>
<g>
</g>
<g>
</g>
<g>
</g>
<g>
</g>
<g>
</g>
</svg>
