<?xml version="1.0" encoding="iso-8859-1"?>
<!-- Generator: Adobe Illustrator 19.0.0, SVG Export Plug-In . SVG Version: 6.00 Build 0)  -->
<svg version="1.1" id="Layer_1" xmlns="http://www.w3.org/2000/svg" xmlns:xlink="http://www.w3.org/1999/xlink" x="0px" y="0px"
	 viewBox="0 0 512.002 512.002" style="enable-background:new 0 0 512.002 512.002;" xml:space="preserve">
<g>
	<g>
		<g>
			<path d="M119.468,162.135c-9.412,0-17.067-7.654-17.067-17.067c0-4.71-3.823-8.533-8.533-8.533c-4.71,0-8.533,3.823-8.533,8.533
				c0,15.855,10.923,29.107,25.6,32.922v1.212c0,4.71,3.823,8.533,8.533,8.533s8.533-3.823,8.533-8.533v-1.212
				c14.677-3.814,25.6-17.067,25.6-32.922c0-18.825-15.309-34.133-34.133-34.133c-9.412,0-17.067-7.654-17.067-17.067
				c0-9.412,7.654-17.067,17.067-17.067s17.067,7.654,17.067,17.067c0,4.71,3.823,8.533,8.533,8.533c4.71,0,8.533-3.823,8.533-8.533
				c0-15.855-10.923-29.107-25.6-32.922v-1.212c0-4.71-3.823-8.533-8.533-8.533s-8.533,3.823-8.533,8.533v1.212
				c-14.677,3.814-25.6,17.067-25.6,32.922c0,18.825,15.309,34.133,34.133,34.133c9.412,0,17.067,7.654,17.067,17.067
				C136.534,154.481,128.88,162.135,119.468,162.135z"/>
			<path d="M503.468,494.935h-42.667v-409.6h34.133c3.447,0,6.562-2.082,7.885-5.265c1.323-3.191,0.589-6.861-1.852-9.301
				L432.701,2.502c-3.337-3.336-8.73-3.336-12.066,0l-68.267,68.267c-2.441,2.44-3.174,6.11-1.852,9.301
				c1.323,3.183,4.437,5.265,7.885,5.265h34.133v409.6h-17.067v-179.2c0-4.71-3.823-8.533-8.533-8.533h-50.492
				c-4.71,0-8.533,3.823-8.533,8.533v179.2h-17.775v-230.4c0-4.71-3.823-8.533-8.533-8.533h-51.2c-4.71,0-8.533,3.823-8.533,8.533
				v230.4h-17.067V298.669c0-4.71-3.823-8.533-8.533-8.533h-51.2c-4.71,0-8.533,3.823-8.533,8.533v196.267h-17.067v-128
				c0-4.71-3.823-8.533-8.533-8.533h-51.2c-4.71,0-8.533,3.823-8.533,8.533v128H8.534c-4.71,0-8.533,3.823-8.533,8.533
				s3.823,8.533,8.533,8.533h51.2c4.71,0,8.533-3.823,8.533-8.533v-128h34.133v128c0,4.71,3.823,8.533,8.533,8.533h34.133
				c4.71,0,8.533-3.823,8.533-8.533V307.202h34.133v196.267c0,4.71,3.823,8.533,8.533,8.533h34.133c4.71,0,8.533-3.823,8.533-8.533
				v-230.4h34.133v230.4c0,4.71,3.823,8.533,8.533,8.533h34.842c4.71,0,8.533-3.823,8.533-8.533v-179.2h33.425v179.2
				c0,4.71,3.823,8.533,8.533,8.533h34.133c4.71,0,8.533-3.823,8.533-8.533V76.802c0-4.71-3.823-8.533-8.533-8.533h-22.067
				l47.667-47.667l47.667,47.667h-22.067c-4.71,0-8.533,3.823-8.533,8.533v426.667c0,4.71,3.823,8.533,8.533,8.533h51.2
				c4.71,0,8.533-3.823,8.533-8.533S508.178,494.935,503.468,494.935z"/>
			<path d="M119.468,238.935c65.877,0,119.467-53.589,119.467-119.467S185.345,0.002,119.468,0.002S0.001,53.591,0.001,119.469
				S53.59,238.935,119.468,238.935z M119.468,17.069c56.465,0,102.4,45.935,102.4,102.4s-45.935,102.4-102.4,102.4
				s-102.4-45.935-102.4-102.4S63.003,17.069,119.468,17.069z"/>
		</g>
	</g>
</g>
<g>
</g>
<g>
</g>
<g>
</g>
<g>
</g>
<g>
</g>
<g>
</g>
<g>
</g>
<g>
</g>
<g>
</g>
<g>
</g>
<g>
</g>
<g>
</g>
<g>
</g>
<g>
</g>
<g>
</g>
</svg>
