<?xml version="1.0" encoding="iso-8859-1"?>
<!-- Generator: Adobe Illustrator 18.0.0, SVG Export Plug-In . SVG Version: 6.00 Build 0)  -->
<!DOCTYPE svg PUBLIC "-//W3C//DTD SVG 1.1//EN" "http://www.w3.org/Graphics/SVG/1.1/DTD/svg11.dtd">
<svg version="1.1" id="Capa_1" xmlns="http://www.w3.org/2000/svg" xmlns:xlink="http://www.w3.org/1999/xlink" x="0px" y="0px"
	 viewBox="0 0 432.814 432.814" style="enable-background:new 0 0 432.814 432.814;" xml:space="preserve">
<g>
	<path d="M423.314,228.274H406.5v-60.005c0-44.9-36.529-81.43-81.43-81.43c-8.455,0-16.612,1.298-24.286,3.7
		c-28.821-49.852-81.532-80.49-139.555-80.49C72.328,10.049,0,82.377,0,171.279c0,88.897,72.328,161.22,161.23,161.22
		c19.412,0,38.217-3.376,56.094-10.031v90.797c0,5.247,4.253,9.5,9.5,9.5h196.49c5.247,0,9.5-4.253,9.5-9.5V237.774
		C432.814,232.527,428.561,228.274,423.314,228.274z M387.5,168.269v60.005h-13v-60.005c0-27.256-22.174-49.43-49.43-49.43
		s-49.43,22.174-49.43,49.43v60.005h-13v-60.005c0-34.424,28.006-62.43,62.43-62.43C359.494,105.839,387.5,133.845,387.5,168.269z
		 M301.681,148.828c1.171,7.394,1.77,14.902,1.77,22.451c0,17.106-2.967,33.657-8.81,49.383v-52.393
		C294.64,160.883,297.288,154.104,301.681,148.828z M319.083,138.434c1.937-0.388,3.938-0.595,5.987-0.595
		c16.779,0,30.43,13.651,30.43,30.43v60.005h-43.419c6.879-18.135,10.369-37.242,10.369-56.995
		C322.45,160.198,321.308,149.189,319.083,138.434z M217.324,237.774v24.809c-16.841,10.381-36.125,15.856-56.094,15.856
		c-59.088,0-107.16-48.072-107.16-107.16s48.072-107.16,107.16-107.16c40.762,0,77.836,23.127,95.897,59.337
		c-8.513,12.864-13.487,28.265-13.487,44.813v60.005h-16.816C221.577,228.274,217.324,232.527,217.324,237.774z M161.23,313.499
		C82.804,313.499,19,249.699,19,171.279c0-78.426,63.804-142.23,142.23-142.23c50.527,0,96.5,26.332,122.134,69.315
		c-4.645,2.782-8.996,6.004-12.982,9.624C248,69.389,206.545,45.119,161.23,45.119c-69.564,0-126.16,56.595-126.16,126.16
		s56.595,126.16,126.16,126.16c19.661,0,38.76-4.521,56.094-13.149v17.711C199.612,309.625,180.773,313.499,161.23,313.499z
		 M413.814,403.765h-177.49V247.274h177.49V403.765z"/>
	<path d="M170.729,105.042v-7.764c0-5.247-4.253-9.5-9.5-9.5s-9.5,4.253-9.5,9.5v7.764c-15.81,0.913-28.395,14.06-28.395,30.095
		v15.488c0,16.035,12.584,29.182,28.395,30.095v37.691c-5.315-0.846-9.395-5.449-9.395-10.998c0-5.247-4.253-9.5-9.5-9.5
		s-9.5,4.253-9.5,9.5c0,16.035,12.584,29.182,28.395,30.095v7.764c0,5.247,4.253,9.5,9.5,9.5s9.5-4.253,9.5-9.5v-7.764
		c15.81-0.913,28.395-14.06,28.395-30.095v-15.488c0-16.035-12.584-29.182-28.395-30.095v-37.692
		c5.315,0.846,9.395,5.449,9.395,10.998v8.604c0,5.247,4.253,9.5,9.5,9.5s9.5-4.253,9.5-9.5v-8.604
		C199.124,119.102,186.539,105.955,170.729,105.042z M142.334,150.626v-15.488c0-5.549,4.08-10.152,9.395-10.998v37.484
		C146.414,160.777,142.334,156.175,142.334,150.626z M180.124,191.927v15.488c0,5.55-4.079,10.152-9.395,10.998v-37.484
		C176.044,181.775,180.124,186.377,180.124,191.927z"/>
</g>
<g>
</g>
<g>
</g>
<g>
</g>
<g>
</g>
<g>
</g>
<g>
</g>
<g>
</g>
<g>
</g>
<g>
</g>
<g>
</g>
<g>
</g>
<g>
</g>
<g>
</g>
<g>
</g>
<g>
</g>
</svg>
